<svg width="40" height="40" viewBox="0 0 40 40" fill="none" xmlns="http://www.w3.org/2000/svg">
<g clip-path="url(#clip0_12_2)">
<path d="M29.5332 19.0052C29.4305 17.7842 29.0871 16.5957 28.5229 15.508C27.9588 14.4204 27.1849 13.4551 26.246 12.6679C22.2958 9.35324 16.4205 9.87554 13.1059 13.8258C9.79123 17.776 10.2971 23.6527 14.2473 26.9674C17.5809 29.7646 22.2727 29.8178 25.6553 27.4019L23.7964 25.8421C22.5512 26.5784 21.1082 26.9101 19.6664 26.7915C18.2247 26.6729 16.8553 26.1098 15.7472 25.1799C12.789 22.6977 12.4021 18.2763 14.8844 15.3181C17.3666 12.3599 21.788 11.9731 24.7462 14.4553C26.2298 15.7002 27.035 17.4267 27.1828 19.2108L21.8903 19.6738L28.1464 24.9233L33.3958 18.6672L29.5332 19.0052Z" fill="white"/>
</g>
<defs>
<clipPath id="clip0_12_2">
<rect width="28" height="28" fill="white" transform="translate(18.521 0.0939941) rotate(40)"/>
</clipPath>
</defs>
</svg>
