<svg width="12" height="22" viewBox="0 0 12 22" fill="none" xmlns="http://www.w3.org/2000/svg">
<path d="M11.5411 0.484254C11.8349 0.794415 12 1.21503 12 1.6536C12 2.09216 11.8349 2.51278 11.5411 2.82294L3.78308 11.01L11.5411 19.197C11.8266 19.509 11.9846 19.9268 11.981 20.3604C11.9774 20.7941 11.8126 21.2089 11.522 21.5156C11.2314 21.8222 10.8383 21.9962 10.4274 21.9999C10.0165 22.0037 9.62058 21.837 9.32499 21.5357L0.458878 12.1793C0.165059 11.8692 0 11.4486 0 11.01C0 10.5714 0.165059 10.1508 0.458878 9.84064L9.32499 0.484254C9.6189 0.174186 10.0175 0 10.4331 0C10.8486 0 11.2472 0.174186 11.5411 0.484254Z" fill="white"/>
</svg>
